<svg version="1.2" xmlns="http://www.w3.org/2000/svg" viewBox="0 0 504 134" width="504" height="134">
	<title>New Project</title>
	<style>
		.s0 { fill: #032571 } 
		.s1 { fill: #ffffff } 
		.s2 { fill: #ffe600 } 
	</style>
	<path id="Shape 2" class="s0" d="m497 8v119h-487v-119z"/>
	<path id="Interface" class="s1" aria-label="Interface"  d="m180.8 81v-37.9h9.7v37.9zm47.6-17.3v17.3h-9.2v-2.8-10.5q0-3.6-0.1-5-0.2-1.4-0.6-2.1-0.5-0.9-1.4-1.4-1-0.5-2.1-0.5-2.9 0-4.5 2.2-1.6 2.2-1.6 6.1v14h-9.1v-28.4h9.1v4.1q2-2.5 4.3-3.6 2.4-1.2 5.2-1.2 4.9 0 7.4 3 2.6 3 2.6 8.8zm9.2-19.2h9.1v8.1h9.4v6.5h-9.4v12q0 2 0.8 2.7 0.8 0.7 3.1 0.7h4.7v6.5h-7.8q-5.4 0-7.6-2.2-2.3-2.3-2.3-7.7v-12h-4.5v-6.5h4.5zm52.5 22.2v2.6h-21.3q0.3 3.2 2.3 4.8 2 1.6 5.5 1.6 2.9 0 5.9-0.9 3-0.8 6.2-2.6v7q-3.2 1.3-6.4 1.9-3.3 0.6-6.5 0.6-7.7 0-12-3.9-4.3-3.9-4.3-11 0-7 4.2-11 4.2-3.9 11.6-3.9 6.7 0 10.7 4 4.1 4 4.1 10.8zm-21.2-3h11.8q0-2.6-1.5-4.2-1.5-1.6-3.9-1.6-2.7 0-4.3 1.5-1.7 1.5-2.1 4.3zm49.1-11.6l0.1 8.2q-1.2-0.6-2.4-0.8-1.2-0.3-2.4-0.3-3.5 0-5.4 2.2-1.9 2.3-1.9 6.5v13.1h-9.1v-28.5h9.1v4.7q1.8-2.8 4-4.1 2.3-1.2 5.5-1.2 0.5 0 1 0 0.5 0 1.5 0.2zm16.3-10.6h7v5.9h-5q-2 0-2.7 0.7-0.8 0.7-0.8 2.5v1.9h7.8v6.5h-7.8v22h-9.1v-22h-4.5v-6.5h4.5v-1.9q0-4.7 2.6-6.9 2.6-2.2 8-2.2zm28.4 26.7h-4.8q-2.8 0-4.2 0.9-1.5 1-1.5 2.9 0 1.7 1.2 2.7 1.1 1 3.2 1 2.6 0 4.3-1.9 1.8-1.8 1.8-4.6zm9.1-3.4v16.2h-9.1v-4.2q-1.9 2.6-4.1 3.8-2.3 1.2-5.6 1.2-4.4 0-7.2-2.6-2.7-2.6-2.7-6.7 0-5 3.4-7.4 3.5-2.3 10.8-2.3h5.4v-0.7q0-2.2-1.7-3.1-1.7-1.1-5.3-1.1-3 0-5.5 0.6-2.5 0.6-4.6 1.8v-7q2.9-0.7 5.8-1 3-0.4 5.9-0.4 7.7 0 11.1 3 3.4 3.1 3.4 9.9zm31.5-11.3v7.4q-1.9-1.3-3.8-1.9-1.8-0.6-3.8-0.6-3.8 0-6 2.2-2.1 2.2-2.1 6.2 0 4 2.1 6.2 2.2 2.3 6 2.3 2.1 0 4-0.7 1.9-0.6 3.6-1.9v7.5q-2.2 0.8-4.4 1.2-2.2 0.4-4.4 0.4-7.7 0-12-4-4.3-3.9-4.3-11 0-7 4.3-10.9 4.3-4 12-4 2.3 0 4.4 0.4 2.2 0.4 4.4 1.2zm36.2 13.2v2.6h-21.2q0.3 3.2 2.3 4.8 1.9 1.6 5.5 1.6 2.9 0 5.9-0.8 3-0.9 6.2-2.6v7q-3.3 1.2-6.5 1.8-3.2 0.7-6.4 0.7-7.8 0-12.1-4-4.2-3.9-4.2-11 0-6.9 4.2-10.9 4.2-4 11.6-4 6.7 0 10.7 4 4 4.1 4 10.8zm-21.1-3h11.8q0-2.6-1.6-4.2-1.5-1.6-3.9-1.6-2.6 0-4.3 1.5-1.6 1.5-2 4.3z"/>
	<path id="Geo" class="s2" aria-label="Geo"  d="m68.7 42.9h0.2l0.1 0.1h0.1 0.1 1.4 1.2 0.2v0.1l-1 0.2h0.1q1.2-0.1 1.7-0.3h1.5v0.1l0.1-0.1h2.6 2.4 0.7 0.7 1 0.7 0.2 0.5 0.9 0.5 0.3 0.6 0.1 0.2 0.1l4 0.1q0.1 0 0.4 0.2 0.1-0.2 0.2-0.2h0.3q1.1 0 2.1 0.9v-0.1q0.5 0 1.5 1.4 0.2 0 0.6 2.3l0.2 1.7-0.1 0.4 0.1 0.2-0.1 1v1.4l0.1 0.6h-0.1v0.2h0.1l-0.1 0.8v2.1 0.3 0.2 0.7 0.2 0.2q0 1-0.1 1h-0.6l-1.2-0.1-0.9 0.1q-3.7-0.1-5.1-0.2h-0.1-0.8v0.1h-0.2v-0.1l-0.2-0.2-0.3 0.1h-0.1q-0.4 0-0.4-0.4v-3.3q0-0.4 0.3-0.4 0-0.2-0.3-0.2v-0.3l0.6-0.1v-0.1h-0.1l-0.4 0.1v-0.2l-0.1-0.3-0.2 0.1h-0.2-0.4-2-0.1-0.4-2v-0.2h-0.1q0 0.2-0.1 0.2h-3.8l-0.1-0.1v-0.4l0.1-0.2-0.1-0.3q-0.2 0-0.2 0.8v0.2h-0.5l-0.5-0.1q-0.2 0.3-0.3 0.3v0.3 0.5l0.1 0.5h-0.1l0.1 0.1v0.1l-0.1 0.2 0.1 0.1-0.1 0.5 0.1 1.2q-0.4 2.9-0.4 6.9v0.4l0.1-0.1h0.1v0.6h-0.1l-0.1 0.9v0.3l0.1 2.4v-0.1h0.2v0.5h-0.2q0.2 1.8 0.2 3.1v1.7l-0.1 0.2 0.1 0.2v0.1l-0.1 0.5 0.1 0.2h0.3l0.1 0.1 0.1-0.1h1.4q0 0.3 0.1 0.3l0.1-0.3 8.1 0.1v0.1h0.1l0.6-0.1v-0.1h-0.2v-0.1q0.2-0.3 0.5-0.3h0.3v-0.1q-0.3-0.1-0.3-0.2l-0.1 0.1h-0.2q-0.3-0.1-0.3-0.4v-0.4l0.3-1.9h-0.3v-1.2q0.3 0 0.3-0.1v-0.1l-0.3-0.1v-0.2q0-0.2 0.2-0.2l-0.1-0.1h0.1v-0.1l-0.3-0.2q-0.1 0-0.4 0.2h-0.1v-0.1l-0.1 0.1h-0.1q-1 0-1-0.1v-0.1h-0.1v0.1h-0.5q-0.1 0-0.2-0.2v-0.1h-0.1l0.1 0.3h-2.5l-0.2-0.1 0.1-0.4v-1.1-0.2l-0.1-0.6 0.1-0.2-0.1-0.7v-0.9l0.1-0.2-0.1-0.2v-0.2q0-0.2 0.7-0.3h0.3 0.5 0.3l2.5 0.3v-0.1h-0.1v-0.2h10.9q0.5 0 0.5 0.6v1.8 1.9l-0.1 1.7 0.1 0.1-0.1 0.6v8.3 1.6q-0.2 0-0.3 0.4l0.3 0.1q-0.9 2.2-1.4 2.4v-0.1l0.6-2.4-0.1-0.1-0.9 2.9q-1.3 1.1-2.6 1.1h-0.4q0-0.3-0.2-0.4-0.2 0-0.2 0.4h-2.5l-0.3-0.1v0.1h-0.1l-10-0.1-0.2-0.1-0.2 0.1h-0.2l-0.1-0.1v0.1l-3.8-0.1h-3l-0.2 0.1h-0.1-0.6q-0.7 0-2-0.6-0.9-0.6-1.4-1.2 0.3-0.1 0.5-0.4-0.3 0.2-0.6 0.2-0.6-0.9-0.6-1.2l0.1-0.3q-0.1-1.1-0.3-1.1-0.2 0-0.2-0.4h0.2v-0.1l-0.2-0.2v-8.7l0.1-1.1-0.1-0.1 0.1-0.2v-4.5-2.1l0.1-0.7-0.1-0.1 0.1-0.2v-2.2q0-2.2 0.2-2.2h-0.1v-0.1l0.1-0.8h-0.2v-0.7-0.6l0.3-3.6h-0.1l-0.1 1.2v0.1h-0.2v-3.6h0.2q-0.1-0.8-0.2-0.8l0.1-0.2-0.1-0.6q0-1.8 2-3.6 1.6-1.3 2.6-1.3zm2 0.4h-1.2v0.1h0.5l0.9-0.1zm-2.6 0l-0.1 0.1h1.2l-0.8-0.1zm-1.5 1.5l-0.1-0.1v0.2h0.1zm17.5 19.5h-0.2v0.1l0.2 0.1v-0.1h0.1v0.1h0.2v-0.1zm15.5-20.1l0.1-1.2h4.1 0.2 0.2 0.5 0.5 0.1 0.9 1.2l0.3 0.1 0.2-0.1 0.1 0.1 0.1-0.1h0.2l0.2 0.1 0.4-0.1h3.7l0.1 0.1 0.1-0.1h6.8 0.5 0.8 0.6 0.3 0.2 0.4 0.6 0.1 0.2 0.1 0.2 0.7 0.7v0.1l0.8-0.1 0.2 0.1 0.5-0.1h1.3 3.3v1.1q-0.4 1.3-0.4 3.6v5.6h-0.6-1.9l-2.5 0.1v-0.1l-0.1 0.1q-0.6 0-0.6-0.1l-0.2 0.1-0.3-0.1-0.5 0.1q-0.4-0.1-0.4-0.1l-0.5 0.1-0.2-0.1h-0.1-1.4-0.1-0.1-0.7-0.1-1.1-0.3-0.3-0.4-0.1-1.1-0.1-0.3-0.1-0.5-0.1-0.6-0.1-0.1l-1.5-0.1-1.1 0.1h-2.2q0-0.3-0.1-0.3-0.2 0-0.2 0.2v0.1h-1.1l-0.2 0.2h0.9 0.2l0.1 0.4-0.2 0.1v0.1h0.1v0.1q0 0.1-0.3 0.1v0.1q0.3 0 0.3 0.1l-0.1 0.2 0.1 0.1h0.1l-0.1 2.5v1.3l0.1 0.3h0.1l0.2-0.1q0.4 0 0.4 0.1 0.9-0.1 2.4-0.1l0.1 0.1v-0.1l10.4 0.1h2l0.1 0.1v1.9l-0.2 1.6 0.1 0.6-0.1 1q0.1 1.2 0.1 2.9v2.2h-0.2v0.1l-2-0.1h-0.8l-0.5-0.1-0.7 0.1h-4.6-0.5-0.5-1.6l-0.5-0.1-0.2 0.1-0.1-0.1-0.3 0.1-0.8-0.1-0.5 0.1-0.5-0.2v0.1h-0.1-0.2l-0.4 0.1q-0.2-0.1-0.2-0.7-0.6 0.9-0.6 1.8-0.3 0.1-0.3 0.2h0.3v0.3 0.3l0.1 0.3-0.1 0.9q0 0.2-0.4 0.2v0.1l0.4 0.4v0.8h-0.4v0.1h0.4v0.5q0 0.2 0.5 0.3h0.1l-0.1-0.1v-0.2h4.9v0.2l0.2-0.2 0.8 0.1 0.1-0.1 0.3 0.1 0.5-0.1 0.4 0.1 0.1-0.1 0.5 0.1v-0.1h0.1v0.1h0.1l0.3-0.1 1.3 0.1h6l0.3-0.1 0.3 0.1h1.4 1 0.1 0.6 0.6q0.4 0 0.4-0.1 0.4 0.1 0.4 0.3v0.8l-0.1 0.8 0.1 0.3h-0.1 0.1v0.1l-0.1 0.5 0.1 0.3h-0.1l0.1 0.2-0.1 1.4 0.1 1.5-0.1 0.4 0.1 0.3h-0.1l0.1 0.1-0.1 0.1 0.1 0.2-0.1 1.4 0.1 0.9h-0.1v0.1l0.1 0.1-0.1 0.8h-1.4l-0.4-0.1-0.1 0.1-0.7-0.1h-1.8l-1.8-0.2-3.6 0.1-0.2 0.1-0.3-0.2q-0.3 0.2-0.8 0.2h-1.6l-0.3-0.1-0.3 0.1h-3.7-0.7-0.3-0.3-0.4-0.1-0.7-0.7-0.7-0.8-0.6-0.6-0.3-2-0.3-0.5-0.4-0.5-0.4-1.5l-0.3-0.1 0.1-0.3h-0.2q0 0.4-0.9 0.4h-1.2v-0.2-0.7l0.1-0.9-0.1-0.1 0.1-0.3v-1l0.1-0.9-0.1-0.2 0.1-0.1-0.1-0.2 0.1-1.7v-0.6q0-0.4 0.1-0.4-0.1-0.7-0.1-3v-16.2q0.1-1.5 0.2-4.4l-0.1-0.3 0.1-0.2-0.1-0.2h0.1q-0.2-0.6-0.2-1v-0.4h0.1v0.1-0.2q0-0.3-0.1-0.3v-0.2-0.1-0.1-0.2l0.1-0.1-0.1-0.3 0.1-0.6-0.1-2.4 0.1-1.6v-0.1h-0.1v0.4h-0.2zm0.2 1.2v0.2h0.1q0.2-2 0.4-2 0.2 0 0.6 1.8h0.1v-0.1q-0.4-1.9-0.6-1.9h-0.1q-0.2 0-0.5 2zm1.3 0.4v0.3zm0.1 0.3h-0.1v0.1l0.1 0.3v-0.1zm56.5-3.3l0.3-0.1 0.3 0.1v-0.1l0.1 0.1h1.4 0.9l0.7-0.1v0.1l0.6-0.1q0.3 0 0.3 0.2 0.4 0.2 2.2 0.6 0.7 0.4 0.7 0.8 0.5 1 0.7 1.2h0.2q0.4 0 0.4 1.6v0.1q0 0.4 0.3 0.4v0.2l-0.1 0.1 0.1 0.1 0.1 0.7-0.1 2.1v4.7l-0.1 0.5 0.1 0.4v1.7l-0.1 0.6 0.1 0.6-0.1 0.8 0.1 0.3-0.1 1.7 0.1 0.5-0.1 1v1.8l0.2 14v0.8q-0.4 2.1-1.5 3.3-1.3 1.2-4 1.2l-1.9 0.1-5.1-0.1h-3.3-1.8-0.1-0.6q-8.5 0.1-8.5 0.2v0.1h-0.3q-1.7 0-3.5-2-1-1.2-1-3.6v-1.9-0.5q-0.1-0.2-0.1-6.4v-17-2.2-0.1-0.3l-0.1-2.1v-0.8q0-3.5 3.1-4.8h0.1l0.2 0.1 0.8-0.1v-0.1h-0.4v-0.1q0.8-0.3 1.8-0.3h0.5v0.1h-0.1v0.1h0.1l0.2-0.1 0.3 0.1q0.7-0.2 1.6-0.2h6.1 0.7 0.1 0.7 0.1 1.6 0.1 0.1zm-17.5 0.3h-0.1v0.1h0.2v-0.1zm-0.4 0l-0.4 0.1v0.1h0.1l0.4-0.1v-0.1zm13.8 9.8l-4.3 0.4-0.2-0.1-0.3 0.1-0.3-0.1-0.1 0.1-0.1-0.1h-0.1v0.1l-0.4-0.1h-0.4l-0.7 0.1v-0.1l-0.2 0.1-1-0.1v0.7 0.3l0.1 0.3-0.1 1.5 0.2 2.7h-0.1l0.1 0.1v2.5h-0.1l0.1 0.1q-0.3 1.9-0.3 3.3v0.9l0.3 5.3-0.1 0.1 0.1 0.4v1h-0.1l0.1 0.1v0.1l-0.1 0.5 0.1 0.5q0 0.5-0.2 0.5l0.1 0.1v0.3l-0.1 0.4 1.3-0.1h0.2 0.1 0.2l0.1 1h0.1v-1l5-0.1 0.3-0.1 0.3 0.1 1.6-0.1 0.3 0.1 0.6-0.1h0.5l0.3 0.2 0.1-0.2-0.2-0.7 0.1-0.6v-1.2-0.1h0.1l0.1 0.7v-0.2q-0.2-3-0.2-4.2v-3.6-0.1-0.3-1.5-1.6-0.2-0.1-1.3-3.1h0.2l0.1 1.4h0.1v-0.3q-0.1-2-0.4-2v-1-0.8l0.2-0.2v-0.1h-0.1v-0.2q0-0.1 0.4-0.1v-0.1q-0.4 0-0.6-0.1 0 0.2-0.8 0.2h-1.8q0-0.3-0.1-0.3zm3.3 5h-0.1v0.2h0.1zm0 0.5h-0.1v0.1l0.1 1.1h0.1v-0.5zm0.1 1.2v0.3zm0 0.4v0.3 0.1h0.1zm0.1 1h-0.1v0.2 0.1h0.1zm-0.5 11.7h-0.1v0.3h0.1z"/>
	<path id="Shape 1" class="s2" d="m186.5 94h249c2.5 0 4.5 2 4.5 4.5 0 2.5-2 4.5-4.5 4.5h-249c-2.5 0-4.5-2-4.5-4.5 0-2.5 2-4.5 4.5-4.5z"/>
</svg>